<!DOCTYPE svg PUBLIC "-//W3C//DTD SVG 20010904//EN" "http://www.w3.org/TR/2001/REC-SVG-20010904/DTD/svg10.dtd">
<svg version="1.0" xmlns="http://www.w3.org/2000/svg" width="804px" height="1200px" viewBox="0 0 8040 12000" preserveAspectRatio="xMidYMid meet">
<g id="layer101" fill="#000000" stroke="none">
</g>
<g id="layer102" fill="#415987" stroke="none">
<path d="M3987 11994 c-3 -3 -3 -12 -1 -18 3 -7 -2 -19 -11 -26 -8 -7 -15 -19 -15 -26 0 -8 -4 -14 -10 -14 -5 0 -10 -9 -10 -20 0 -11 -4 -20 -10 -20 -5 0 -10 -9 -10 -19 0 -10 -7 -21 -15 -25 -8 -3 -15 -12 -15 -21 0 -8 -4 -15 -10 -15 -5 0 -10 -6 -10 -14 0 -19 -50 -106 -61 -106 -5 0 -9 -11 -9 -24 0 -13 -7 -26 -15 -30 -8 -3 -15 -12 -15 -21 0 -8 -3 -15 -7 -15 -9 0 -33 -49 -33 -67 0 -7 -4 -13 -9 -13 -5 0 -11 -8 -15 -17 -5 -18 -26 -53 -36 -63 -12 -12 -30 -51 -30 -65 0 -8 -4 -15 -10 -15 -5 0 -10 -7 -10 -15 0 -9 -7 -18 -15 -21 -8 -4 -15 -13 -15 -21 0 -8 -11 -29 -25 -47 -14 -18 -22 -36 -19 -39 4 -4 -1 -9 -10 -13 -9 -3 -16 -17 -16 -30 0 -13 -4 -24 -10 -24 -5 0 -10 -7 -10 -15 0 -7 -6 -18 -12 -22 -17 -10 -38 -49 -38 -68 0 -8 -4 -15 -10 -15 -5 0 -10 -7 -10 -15 0 -9 -7 -18 -15 -21 -8 -4 -15 -13 -15 -21 0 -8 -6 -21 -12 -28 -33 -37 -39 -46 -33 -55 4 -6 -1 -13 -9 -16 -9 -3 -16 -12 -16 -19 0 -19 -30 -75 -41 -75 -5 0 -9 -7 -9 -15 0 -8 -4 -15 -10 -15 -5 0 -10 -7 -10 -15 0 -15 -33 -79 -54 -105 -7 -8 -20 -32 -30 -52 -9 -21 -21 -38 -26 -38 -6 0 -10 -9 -10 -20 0 -11 -3 -20 -8 -20 -4 0 -15 -18 -25 -40 -9 -22 -21 -40 -27 -40 -5 0 -10 -9 -10 -19 0 -11 -4 -21 -8 -23 -4 -1 -20 -29 -36 -60 -15 -32 -32 -58 -37 -58 -5 0 -9 -9 -9 -19 0 -11 -4 -23 -10 -26 -5 -3 -17 -21 -26 -40 -9 -19 -20 -35 -25 -35 -5 0 -9 -6 -9 -13 0 -21 -30 -77 -41 -77 -5 0 -9 -9 -9 -19 0 -11 -4 -21 -8 -23 -4 -1 -20 -29 -36 -60 -15 -32 -31 -58 -34 -58 -4 0 -15 -18 -25 -40 -9 -22 -22 -40 -28 -40 -6 0 -8 -7 -5 -15 3 -9 -1 -18 -9 -21 -8 -4 -15 -15 -15 -25 0 -11 -6 -22 -13 -25 -8 -3 -20 -20 -27 -39 -8 -19 -17 -35 -22 -35 -4 0 -8 -7 -8 -15 0 -19 -21 -58 -37 -68 -7 -4 -13 -15 -13 -22 0 -8 -4 -15 -10 -15 -5 0 -10 -9 -10 -20 0 -11 -7 -23 -16 -27 -8 -3 -13 -12 -10 -20 3 -7 -1 -16 -9 -19 -8 -4 -15 -15 -15 -25 0 -10 -4 -19 -10 -19 -5 0 -10 -9 -10 -20 0 -11 -7 -20 -15 -20 -8 0 -15 -9 -15 -20 0 -11 -4 -20 -10 -20 -5 0 -10 -9 -10 -20 0 -11 -4 -20 -10 -20 -5 0 -10 -8 -10 -19 0 -10 -11 -30 -25 -45 -14 -15 -25 -34 -25 -42 0 -7 -4 -14 -10 -14 -5 0 -10 -7 -10 -16 0 -8 -11 -30 -25 -48 -14 -18 -25 -38 -25 -44 0 -7 -4 -12 -10 -12 -5 0 -10 -9 -10 -20 0 -11 -7 -23 -15 -26 -8 -4 -15 -14 -15 -24 0 -10 -4 -20 -8 -22 -4 -1 -20 -29 -36 -60 -15 -32 -31 -58 -34 -58 -4 0 -18 -24 -32 -53 -14 -28 -31 -56 -37 -60 -7 -4 -13 -17 -13 -27 0 -11 -7 -20 -15 -20 -9 0 -15 -9 -15 -25 0 -14 -4 -25 -10 -25 -5 0 -10 -7 -10 -15 0 -8 -4 -15 -10 -15 -5 0 -10 -9 -10 -20 0 -11 -4 -20 -10 -20 -5 0 -10 -9 -10 -20 0 -11 -7 -23 -15 -26 -8 -4 -15 -15 -15 -25 0 -10 -4 -19 -9 -19 -5 0 -16 -18 -25 -40 -9 -22 -20 -40 -26 -40 -5 0 -10 -9 -10 -20 0 -11 -4 -20 -10 -20 -5 0 -10 -9 -10 -20 0 -11 -7 -20 -15 -20 -8 0 -15 -9 -15 -20 0 -11 -3 -20 -7 -20 -9 0 -33 -49 -33 -67 0 -7 -3 -13 -8 -13 -7 0 -25 -30 -38 -62 -3 -10 -10 -18 -15 -18 -5 0 -9 -9 -9 -19 0 -10 -7 -21 -15 -25 -8 -3 -12 -12 -9 -21 3 -8 2 -15 -3 -15 -5 0 -20 -20 -32 -45 -12 -25 -27 -43 -32 -40 -5 4 -9 -5 -9 -19 0 -14 -4 -26 -10 -26 -5 0 -10 -9 -10 -20 0 -11 -4 -20 -10 -20 -5 0 -10 -5 -10 -12 0 -6 -11 -26 -25 -44 -14 -18 -25 -40 -25 -48 0 -9 -3 -16 -7 -16 -5 0 -17 -18 -27 -40 -11 -22 -23 -40 -28 -40 -5 0 -7 -4 -3 -9 3 -5 0 -16 -7 -23 -19 -20 -35 -48 -55 -90 -10 -21 -21 -38 -25 -38 -5 0 -8 -9 -8 -20 0 -10 -6 -23 -13 -27 -6 -4 -28 -39 -47 -78 -19 -38 -41 -74 -47 -78 -7 -4 -13 -17 -13 -27 0 -11 -7 -20 -15 -20 -8 0 -15 -6 -15 -13 0 -18 -24 -67 -32 -67 -5 0 -8 -9 -8 -20 0 -11 -4 -20 -10 -20 -5 0 -10 -9 -10 -19 0 -10 -7 -21 -15 -25 -8 -3 -15 -12 -15 -21 0 -8 -3 -15 -7 -15 -9 0 -33 -48 -33 -66 0 -7 -6 -17 -12 -21 -17 -10 -38 -49 -38 -68 0 -8 -6 -15 -12 -15 -13 0 -58 -85 -58 -108 0 -7 -4 -12 -10 -12 -5 0 -10 -7 -10 -15 0 -7 -6 -18 -13 -22 -7 -4 -26 -34 -42 -66 -17 -32 -34 -67 -40 -78 -5 -10 -13 -19 -17 -19 -5 0 -8 -7 -8 -15 0 -9 -7 -18 -15 -21 -8 -4 -15 -12 -15 -18 0 -15 -46 -107 -57 -115 -5 -3 -24 -37 -43 -75 -19 -37 -40 -70 -47 -73 -7 -3 -13 -12 -13 -20 0 -9 -11 -26 -25 -39 -14 -13 -25 -30 -25 -38 0 -8 -5 -18 -10 -21 -6 -3 -10 -13 -10 -22 0 -9 -11 -26 -25 -39 -14 -13 -25 -30 -25 -39 0 -8 -4 -15 -10 -15 -5 0 -10 -11 -10 -25 0 -14 -3 -25 -8 -25 -4 0 -16 -20 -27 -45 -11 -25 -23 -45 -27 -45 -5 0 -8 -9 -8 -20 0 -11 -7 -20 -15 -20 -9 0 -15 -9 -15 -25 0 -14 -4 -25 -10 -25 -5 0 -10 -7 -10 -15 0 -8 -5 -24 -10 -35 -6 -11 -15 -29 -20 -40 -6 -11 -10 -27 -10 -35 0 -9 -7 -18 -15 -21 -8 -4 -15 -17 -15 -30 0 -13 -4 -24 -10 -24 -5 0 -10 -9 -10 -20 0 -11 -5 -29 -10 -40 -24 -48 -28 -57 -35 -88 -3 -18 -11 -32 -16 -32 -5 0 -9 -13 -9 -30 0 -20 -5 -30 -15 -30 -10 0 -15 -10 -15 -34 0 -19 -5 -38 -10 -41 -6 -3 -10 -19 -10 -36 0 -16 -4 -29 -10 -29 -5 0 -10 -18 -10 -39 0 -22 -5 -43 -10 -46 -6 -3 -10 -22 -10 -41 0 -22 -6 -37 -15 -40 -10 -4 -15 -20 -15 -44 0 -22 -4 -42 -10 -45 -5 -3 -10 -28 -10 -55 0 -27 -4 -52 -10 -55 -5 -3 -10 -30 -10 -60 0 -38 -4 -54 -15 -59 -11 -4 -15 -22 -15 -76 0 -54 -4 -72 -15 -76 -12 -5 -15 -28 -15 -116 0 -70 -4 -107 -10 -103 -7 4 -10 -102 -10 -309 0 -204 4 -316 10 -316 6 0 10 -43 10 -110 0 -91 3 -110 15 -110 12 0 15 -15 15 -74 0 -53 4 -77 15 -86 10 -8 15 -31 15 -66 0 -29 5 -56 10 -59 6 -3 10 -26 10 -50 0 -24 5 -47 10 -50 5 -3 10 -26 10 -50 0 -29 5 -45 15 -49 9 -3 15 -18 15 -40 0 -19 5 -38 10 -41 6 -3 10 -24 10 -46 0 -21 5 -39 10 -39 6 0 10 -16 10 -35 0 -19 5 -35 10 -35 6 0 10 -16 10 -35 0 -24 5 -35 15 -35 9 0 15 -9 15 -24 0 -13 8 -39 17 -58 25 -50 28 -59 44 -110 7 -27 17 -48 21 -48 4 0 8 -11 8 -24 0 -13 7 -26 15 -30 8 -3 15 -17 15 -31 0 -14 5 -25 10 -25 6 0 10 -11 10 -24 0 -14 5 -28 10 -31 6 -3 10 -15 10 -26 0 -10 5 -19 10 -19 6 0 10 -9 10 -20 0 -11 4 -20 9 -20 5 0 20 -21 33 -48 13 -26 26 -49 29 -52 3 -3 12 -20 20 -37 8 -18 17 -33 21 -33 5 0 8 -9 8 -19 0 -11 11 -32 25 -47 14 -15 25 -33 25 -40 0 -8 5 -14 10 -14 6 0 10 -7 10 -16 0 -8 6 -22 13 -29 29 -34 37 -45 37 -55 0 -6 6 -13 14 -16 7 -3 24 -25 36 -50 13 -24 27 -44 32 -44 4 0 8 -9 8 -20 0 -11 7 -20 15 -20 8 0 15 -6 15 -13 0 -8 9 -22 20 -32 11 -10 20 -24 20 -32 0 -7 3 -13 8 -13 4 0 25 -23 47 -51 46 -59 62 -78 116 -139 22 -25 59 -67 82 -93 58 -67 149 -157 159 -157 4 0 8 -7 8 -15 0 -8 5 -15 10 -15 6 0 21 -10 34 -22 13 -13 51 -48 85 -78 34 -30 73 -65 87 -78 14 -12 28 -22 32 -22 4 0 26 -18 50 -40 24 -22 45 -40 48 -40 3 0 14 -8 25 -18 10 -11 32 -25 47 -32 15 -8 38 -26 52 -40 14 -14 38 -32 54 -40 58 -30 66 -35 66 -42 0 -5 7 -8 15 -8 8 0 15 -7 15 -15 0 -8 7 -15 16 -15 9 0 28 -8 42 -18 15 -10 44 -26 65 -36 20 -9 37 -20 37 -24 0 -4 18 -15 40 -25 22 -9 40 -21 40 -27 0 -5 6 -7 14 -4 7 3 20 -2 29 -10 9 -9 23 -16 31 -16 9 0 16 -4 16 -10 0 -5 9 -10 20 -10 11 0 23 -7 26 -15 4 -8 15 -15 25 -15 10 0 19 -4 19 -10 0 -5 10 -10 23 -10 13 0 27 -4 32 -9 6 -4 31 -16 57 -26 27 -10 48 -22 48 -26 0 -5 11 -9 24 -9 13 0 26 -7 30 -15 3 -8 12 -12 19 -9 8 3 21 -2 30 -10 9 -9 27 -16 41 -16 14 0 26 -4 26 -10 0 -5 13 -10 29 -10 17 0 33 -4 36 -10 3 -5 20 -10 36 -10 17 0 32 -6 35 -15 4 -8 19 -15 34 -15 16 0 32 -4 35 -10 3 -5 21 -10 40 -10 19 0 37 -4 40 -10 3 -5 21 -10 40 -10 19 0 37 -4 40 -10 3 -5 21 -10 40 -10 18 0 40 -6 47 -13 7 -8 36 -16 63 -19 27 -4 51 -11 53 -17 2 -6 27 -11 58 -11 30 0 54 -4 54 -10 0 -6 30 -10 70 -10 40 0 70 -4 70 -10 0 -6 36 -10 89 -10 50 0 93 -4 96 -10 4 -6 150 -10 405 -10 255 0 401 4 405 10 3 6 46 10 96 10 53 0 89 4 89 10 0 6 30 10 70 10 40 0 70 4 70 10 0 6 23 10 51 10 31 0 56 6 65 15 9 8 33 15 55 15 23 0 47 7 55 15 9 8 31 15 49 15 19 0 37 5 40 10 3 6 21 10 40 10 19 0 37 5 40 10 3 6 22 10 41 10 19 0 34 5 34 10 0 6 16 10 35 10 24 0 35 5 35 15 0 10 10 15 34 15 19 0 38 5 41 10 3 6 19 10 36 10 16 0 29 5 29 10 0 6 11 10 24 10 13 0 26 5 28 10 2 6 17 12 33 14 16 2 31 8 33 15 2 6 15 11 28 11 13 0 24 4 24 9 0 4 21 16 48 26 26 10 51 22 57 26 5 5 19 9 32 9 13 0 23 5 23 10 0 6 9 10 19 10 10 0 21 7 25 15 3 8 15 15 26 15 11 0 20 5 20 10 0 6 7 10 16 10 8 0 22 7 31 16 9 8 22 13 29 10 8 -3 14 -1 14 4 0 6 18 18 40 27 22 10 40 21 40 25 0 4 17 15 38 24 20 10 49 26 64 36 14 10 33 18 42 18 9 0 16 7 16 15 0 8 7 15 15 15 8 0 15 5 15 10 0 6 7 10 15 10 9 0 18 6 21 14 3 8 17 17 31 21 14 3 37 18 51 33 15 15 39 34 54 42 15 7 37 21 47 32 11 10 22 18 25 18 3 0 20 14 38 31 18 17 44 38 58 47 14 9 36 27 50 39 54 48 85 73 93 73 4 0 7 7 7 15 0 8 4 15 9 15 4 0 22 14 39 30 18 17 36 30 42 30 5 0 10 7 10 15 0 8 3 15 8 15 9 0 112 97 112 106 0 3 15 21 33 39 28 28 111 122 157 176 8 9 33 40 55 68 22 28 43 51 47 51 5 0 8 6 8 13 0 8 9 22 20 32 11 10 20 24 20 32 0 7 7 16 15 19 8 4 15 12 15 20 0 8 4 14 8 14 5 0 19 20 32 44 12 25 29 47 36 50 8 3 14 10 14 16 0 6 6 18 13 25 31 35 37 45 37 60 0 8 5 15 10 15 6 0 10 6 10 14 0 7 11 25 25 40 14 15 25 36 25 47 0 10 5 19 10 19 6 0 10 9 10 20 0 11 3 20 8 20 4 0 16 20 27 45 11 25 23 45 28 45 4 0 7 7 7 15 0 9 7 18 15 21 8 4 15 15 15 25 0 10 5 19 10 19 6 0 10 11 10 25 0 14 5 25 10 25 6 0 10 11 10 25 0 14 5 25 10 25 6 0 10 11 10 25 0 14 7 28 15 31 8 4 15 17 15 30 0 13 4 24 8 24 4 0 14 21 21 48 7 26 19 61 27 79 8 17 14 36 14 42 0 6 5 11 10 11 6 0 10 14 10 30 0 18 6 33 15 36 9 4 15 19 15 35 0 16 5 29 10 29 6 0 10 16 10 35 0 19 5 35 10 35 6 0 10 20 10 45 0 25 5 45 10 45 6 0 10 16 10 35 0 22 6 38 15 41 10 4 15 20 15 49 0 24 5 47 10 50 6 3 10 26 10 50 0 24 4 47 10 50 6 3 10 30 10 60 0 34 5 59 15 69 11 10 15 36 15 86 0 54 4 72 15 76 12 5 15 27 15 115 0 66 4 109 10 109 6 0 10 109 10 306 0 201 -3 303 -10 299 -6 -4 -10 33 -10 105 0 89 -3 112 -15 116 -11 5 -15 23 -15 74 0 48 -4 71 -15 80 -10 8 -15 31 -15 66 0 29 -4 56 -10 59 -5 3 -10 26 -10 51 0 24 -4 44 -10 44 -5 0 -10 20 -10 44 0 30 -5 46 -15 50 -10 3 -15 19 -15 45 0 22 -4 43 -10 46 -5 3 -10 21 -10 40 0 19 -4 37 -10 40 -5 3 -10 19 -10 36 0 16 -4 29 -10 29 -5 0 -10 16 -10 35 0 24 -5 35 -15 35 -10 0 -15 11 -15 35 0 19 -4 35 -10 35 -5 0 -12 16 -16 35 -3 19 -10 35 -15 35 -5 0 -9 11 -9 24 0 14 -4 28 -10 31 -5 3 -10 17 -10 31 0 13 -4 24 -10 24 -5 0 -10 11 -10 25 0 16 -6 25 -15 25 -9 0 -15 9 -15 25 0 14 -4 25 -10 25 -5 0 -10 11 -10 25 0 14 -4 25 -10 25 -5 0 -10 11 -10 25 0 14 -4 25 -10 25 -5 0 -10 9 -10 20 0 11 -6 23 -13 26 -7 2 -22 25 -32 49 -11 25 -23 45 -27 45 -5 0 -8 9 -8 20 0 11 -4 20 -10 20 -5 0 -10 9 -10 20 0 11 -4 20 -10 20 -5 0 -10 7 -10 15 0 9 -7 18 -15 21 -8 4 -15 15 -15 25 0 10 -4 19 -10 19 -5 0 -10 9 -10 20 0 11 -4 20 -10 20 -5 0 -10 7 -10 16 0 8 -6 22 -12 29 -28 31 -38 44 -38 50 0 4 -11 21 -25 39 -14 18 -25 38 -25 44 0 7 -4 12 -10 12 -5 0 -10 9 -10 20 0 11 -3 20 -8 20 -8 0 -15 12 -47 79 -11 22 -23 41 -27 41 -5 0 -8 11 -8 25 0 16 -6 25 -15 25 -8 0 -15 7 -15 15 0 9 -11 28 -25 43 -14 15 -25 32 -25 37 0 17 -24 65 -32 65 -5 0 -8 6 -8 14 0 8 -7 16 -15 20 -8 3 -15 15 -15 26 0 11 -4 20 -10 20 -5 0 -10 6 -10 13 0 18 -24 67 -32 67 -5 0 -8 9 -8 20 0 11 -7 20 -15 20 -8 0 -15 7 -15 15 0 19 -21 58 -37 68 -7 4 -13 17 -13 27 0 11 -4 20 -10 20 -5 0 -10 7 -10 15 0 9 -11 28 -25 43 -14 15 -25 35 -25 44 0 10 -4 18 -10 18 -5 0 -10 9 -10 20 0 11 -4 20 -10 20 -5 0 -10 7 -10 15 0 8 -4 15 -10 15 -5 0 -10 9 -10 20 0 11 -7 23 -15 26 -8 4 -15 15 -15 25 0 10 -5 19 -10 19 -6 0 -17 18 -26 40 -9 22 -20 40 -25 40 -5 0 -9 9 -9 20 0 11 -3 20 -8 20 -8 0 -15 12 -47 79 -11 22 -23 41 -27 41 -5 0 -8 9 -8 19 0 10 -7 21 -15 25 -8 3 -15 14 -15 25 0 10 -7 22 -16 25 -9 3 -14 12 -12 18 3 7 -4 22 -14 33 -10 11 -21 30 -24 42 -4 13 -10 23 -15 23 -5 0 -9 9 -9 19 0 10 -7 21 -15 25 -8 3 -15 12 -15 21 0 8 -4 15 -10 15 -5 0 -10 9 -10 20 0 11 -4 20 -10 20 -5 0 -10 9 -10 20 0 11 -4 20 -10 20 -5 0 -10 9 -10 20 0 11 -5 20 -10 20 -6 0 -13 8 -17 18 -3 9 -16 30 -27 47 -26 37 -46 75 -46 87 0 5 -9 19 -20 31 -24 25 -50 74 -50 94 0 7 -4 13 -10 13 -5 0 -10 9 -10 21 0 11 -4 17 -10 14 -5 -3 -10 0 -10 8 0 8 -7 20 -15 27 -8 7 -15 21 -15 31 0 11 -4 19 -10 19 -5 0 -10 9 -10 20 0 11 -5 20 -10 20 -6 0 -18 18 -27 40 -10 22 -21 40 -25 40 -5 0 -8 7 -8 15 0 9 -7 18 -15 21 -8 4 -15 17 -15 30 0 13 -4 24 -10 24 -5 0 -10 9 -10 20 0 11 -4 20 -10 20 -5 0 -10 7 -10 15 0 8 -4 15 -10 15 -5 0 -10 9 -10 20 0 11 -7 23 -15 26 -8 4 -15 14 -15 24 0 10 -6 20 -14 23 -8 3 -19 22 -26 41 -6 20 -16 36 -21 36 -5 0 -9 9 -9 20 0 11 -7 20 -15 20 -8 0 -15 6 -15 13 0 18 -24 67 -32 67 -5 0 -8 9 -8 20 0 11 -4 20 -10 20 -5 0 -10 9 -10 20 0 11 -7 20 -15 20 -9 0 -15 9 -15 25 0 14 -4 25 -10 25 -5 0 -10 7 -10 15 0 8 -4 15 -10 15 -5 0 -10 6 -10 14 0 7 -7 19 -15 26 -8 7 -15 21 -15 31 0 11 -4 19 -10 19 -5 0 -10 7 -10 14 0 8 -11 27 -25 42 -14 15 -25 35 -25 45 0 11 -4 19 -10 19 -5 0 -10 7 -10 15 0 9 -11 28 -25 43 -14 15 -25 35 -25 44 0 10 -4 18 -10 18 -5 0 -10 9 -10 19 0 10 -7 21 -15 25 -8 3 -15 12 -15 21 0 8 -4 15 -10 15 -5 0 -10 9 -10 20 0 11 -4 20 -10 20 -5 0 -10 7 -10 15 0 9 -7 18 -15 21 -8 4 -15 14 -15 24 0 11 -4 22 -10 25 -5 3 -10 15 -10 26 0 10 -4 19 -10 19 -5 0 -10 7 -10 15 0 8 -4 15 -10 15 -5 0 -10 6 -10 14 0 7 -7 19 -15 26 -8 7 -15 21 -15 31 0 11 -7 19 -16 19 -10 0 -14 6 -11 14 3 8 -1 20 -9 26 -8 7 -14 19 -14 26 0 8 -4 14 -10 14 -5 0 -10 9 -10 19 0 10 -7 21 -15 25 -8 3 -15 12 -15 21 0 8 -4 15 -10 15 -5 0 -10 6 -10 13 0 18 -24 67 -32 67 -5 0 -8 9 -8 20 0 11 -7 20 -15 20 -8 0 -15 9 -15 19 0 11 -4 23 -10 26 -5 3 -10 15 -10 26 0 10 -4 19 -9 19 -5 0 -16 16 -25 35 -9 19 -21 35 -26 35 -6 0 -10 11 -10 25 0 14 -6 25 -12 25 -13 1 -58 86 -58 108 0 7 -4 12 -10 12 -5 0 -10 7 -10 15 0 9 -7 18 -15 21 -8 4 -15 15 -15 25 0 10 -4 19 -10 19 -5 0 -10 9 -10 20 0 11 -4 20 -10 20 -5 0 -10 7 -10 15 0 9 -7 18 -15 21 -8 4 -15 13 -15 22 0 8 -10 29 -23 46 -13 17 -30 46 -38 64 -8 17 -17 32 -21 32 -5 0 -8 7 -8 16 0 9 -10 30 -22 47 -30 42 -48 76 -48 92 0 7 -7 15 -15 19 -8 3 -12 12 -9 19 3 8 -2 17 -10 20 -9 4 -16 13 -16 22 0 8 -4 15 -10 15 -5 0 -10 7 -10 15 0 9 -7 18 -15 21 -8 4 -15 12 -15 18 0 18 -24 66 -32 66 -5 0 -8 9 -8 20 0 11 -7 20 -15 20 -8 0 -15 9 -15 20 0 11 -4 20 -10 20 -5 0 -10 6 -10 13 0 18 -24 67 -32 67 -5 0 -8 7 -8 15 0 9 -7 18 -15 21 -8 4 -15 17 -15 30 0 13 -6 24 -13 24 -6 0 -18 15 -26 33 -7 17 -18 44 -25 60 -6 15 -14 27 -18 27 -5 0 -8 6 -8 14 0 8 -7 16 -15 20 -8 3 -15 15 -15 26 0 11 -4 20 -10 20 -5 0 -10 9 -10 20 0 11 -4 20 -10 20 -5 0 -10 7 -10 16 0 8 -6 22 -12 29 -31 35 -38 45 -38 59 0 8 -6 19 -13 23 -7 4 -19 23 -26 41 -8 17 -17 32 -22 32 -5 0 -9 9 -9 20 0 12 -9 31 -20 43 -24 25 -50 74 -50 94 0 7 -4 13 -10 13 -5 0 -10 6 -10 14 0 8 -7 16 -15 20 -8 3 -15 17 -15 31 0 21 -5 25 -28 25 -16 0 -31 -3 -35 -6z m338 -5514 c16 -5 55 -12 85 -14 30 -3 105 -17 165 -31 61 -14 124 -28 140 -31 17 -3 40 -12 52 -20 12 -8 33 -14 47 -14 14 0 28 -4 31 -10 3 -5 16 -10 29 -10 12 0 26 -4 31 -9 6 -4 34 -16 63 -27 28 -10 52 -22 52 -26 0 -4 7 -8 15 -8 18 0 219 -103 285 -145 65 -43 82 -53 106 -64 12 -5 23 -14 25 -18 2 -5 20 -20 39 -33 151 -105 354 -295 443 -413 21 -28 43 -54 48 -55 5 -2 26 -29 46 -60 19 -32 39 -59 43 -62 13 -9 125 -193 154 -253 16 -31 32 -60 37 -63 5 -3 9 -14 9 -25 0 -10 5 -19 10 -19 6 0 10 -5 10 -11 0 -5 11 -34 24 -62 13 -29 29 -70 36 -92 7 -22 19 -52 26 -67 8 -14 14 -35 14 -45 0 -10 4 -23 9 -28 4 -6 20 -59 35 -120 14 -60 31 -126 36 -145 5 -19 11 -55 14 -80 3 -25 10 -67 17 -95 7 -30 11 -155 12 -320 0 -215 -3 -285 -17 -345 -9 -41 -16 -89 -16 -107 0 -18 -4 -42 -9 -55 -5 -13 -21 -75 -36 -138 -15 -63 -31 -119 -36 -125 -5 -5 -9 -17 -9 -27 0 -9 -7 -34 -16 -55 -9 -21 -20 -47 -24 -58 -22 -57 -64 -151 -71 -160 -5 -5 -9 -17 -9 -27 0 -10 -4 -18 -10 -18 -5 0 -10 -6 -10 -13 0 -7 -16 -39 -35 -71 -19 -32 -35 -65 -35 -72 0 -8 -4 -14 -9 -14 -5 0 -18 -18 -29 -39 -12 -22 -36 -59 -54 -84 -18 -25 -52 -72 -75 -104 -76 -107 -242 -281 -371 -392 -61 -52 -208 -163 -248 -188 -96 -60 -226 -135 -254 -148 -19 -8 -42 -19 -50 -24 -22 -13 -101 -47 -130 -56 -14 -4 -38 -13 -55 -21 -92 -41 -282 -95 -400 -114 -27 -4 -66 -12 -85 -18 -123 -35 -677 -35 -800 0 -19 6 -57 14 -85 18 -94 15 -296 68 -309 81 -6 5 -19 9 -31 9 -11 0 -29 6 -40 13 -11 7 -38 19 -60 26 -69 22 -291 129 -324 154 -15 12 -32 23 -82 51 -36 20 -244 172 -294 215 -150 131 -358 364 -453 507 -100 153 -180 303 -231 436 -18 46 -38 97 -46 113 -26 60 -85 275 -85 312 0 12 -4 25 -10 28 -5 3 -10 23 -10 43 0 20 -7 71 -17 112 -25 113 -25 578 0 710 38 198 84 387 99 405 4 5 8 19 8 31 0 12 8 37 17 56 29 58 33 68 33 78 0 6 9 29 19 53 10 23 22 49 25 57 3 8 10 22 14 30 25 44 33 59 55 106 29 59 146 248 159 252 4 2 8 8 8 14 0 10 65 96 81 108 4 3 25 30 48 60 84 112 297 309 441 410 19 13 37 27 40 30 12 13 70 50 78 50 5 0 15 7 22 15 7 8 24 21 39 28 205 108 263 137 276 137 8 0 15 4 15 9 0 5 12 12 27 16 15 3 45 15 67 26 22 10 47 19 56 19 9 0 25 6 35 14 11 8 25 12 31 9 7 -2 23 2 36 10 13 9 37 18 53 21 17 3 80 17 140 31 61 14 137 28 169 31 33 3 64 8 70 11 31 20 562 22 621 3z"/>
<path d="M3920 5924 c-640 -51 -1172 -373 -1496 -904 -31 -51 -69 -120 -84 -154 -15 -34 -36 -81 -47 -106 -47 -103 -99 -295 -124 -455 -19 -120 -17 -408 5 -540 61 -383 234 -735 492 -1005 291 -302 608 -476 1029 -562 151 -31 506 -33 660 -4 694 130 1248 607 1464 1261 178 538 109 1109 -194 1590 -85 135 -136 198 -269 330 -135 134 -197 184 -336 270 -279 172 -593 266 -930 278 -69 3 -145 3 -170 1z"/>
</g>
<g id="layer103" fill="#f6f7f9" stroke="none">
<path d="M3875 5485 c-103 -12 -112 -14 -255 -60 -152 -48 -309 -134 -433 -238 l-48 -39 -62 43 c-34 24 -88 63 -121 86 -32 24 -62 43 -67 43 -5 0 -9 -110 -9 -249 l0 -249 38 -23 c20 -12 48 -32 62 -44 14 -13 61 -47 105 -77 l80 -55 49 74 c27 41 85 109 128 153 167 167 363 260 618 291 218 28 464 -38 675 -181 82 -55 208 -184 262 -267 20 -32 38 -60 40 -62 4 -7 71 37 182 120 l111 82 -1 116 c-1 64 -4 173 -8 242 l-6 126 -125 -87 -124 -88 -45 40 c-139 122 -355 230 -554 277 -168 40 -315 48 -492 26z m381 -70 c263 -45 486 -155 674 -332 83 -78 200 -213 200 -231 0 -6 -24 -27 -52 -48 -29 -21 -67 -48 -84 -61 l-31 -23 -61 80 c-141 181 -349 318 -581 381 -97 27 -341 37 -445 19 -202 -35 -390 -125 -535 -256 -54 -49 -153 -159 -182 -203 l-16 -25 -86 60 c-48 32 -87 62 -87 66 0 18 126 172 197 239 174 165 408 286 638 328 33 6 69 12 80 15 53 10 291 5 371 -9z m-1219 -269 l52 -39 -67 -81 -67 -82 -5 126 c-3 69 -4 128 -2 133 3 8 6 6 89 -57z m2121 -142 l-3 -66 -69 81 c-39 47 -65 86 -60 91 5 4 36 27 69 50 l60 41 3 -65 c2 -36 2 -96 0 -132z"/>
<path d="M4005 5335 c0 -51 3 -65 15 -65 12 0 15 14 15 65 0 51 -3 65 -15 65 -12 0 -15 -14 -15 -65z"/>
<path d="M3895 5360 c-17 -32 -40 -31 -32 1 4 13 0 19 -12 19 -15 0 -15 -7 -7 -65 11 -69 11 -69 74 -49 18 5 15 54 -3 54 -19 0 -19 9 0 34 17 23 19 36 5 36 -5 0 -17 -14 -25 -30z m15 -70 c0 -13 -7 -20 -20 -20 -13 0 -20 7 -20 20 0 13 7 20 20 20 13 0 20 -7 20 -20z"/>
<path d="M4134 5381 c3 -5 3 -30 -1 -56 -5 -39 -9 -46 -24 -42 -11 3 -19 1 -19 -4 0 -5 16 -10 35 -11 19 -1 43 -2 52 -2 9 -1 19 6 21 14 5 13 3 13 -12 1 -28 -23 -39 -1 -28 58 9 47 8 51 -10 51 -11 0 -17 -4 -14 -9z"/>
<path d="M4240 5373 c1 -12 20 -96 26 -112 3 -10 18 4 44 40 36 51 41 69 19 69 -5 0 -9 -7 -9 -15 0 -9 -10 -20 -22 -25 -13 -5 -17 -9 -10 -9 10 -1 10 -5 0 -21 -11 -17 -14 -17 -21 -4 -5 8 -6 21 -4 28 3 8 0 19 -6 25 -9 9 -8 14 3 21 13 8 12 10 -2 10 -10 0 -18 -3 -18 -7z"/>
<path d="M3704 5348 c-30 -10 -31 -11 -18 -37 8 -15 15 -43 16 -63 l3 -35 39 11 c22 6 41 18 44 26 2 10 1 11 -5 4 -10 -14 -53 -25 -53 -14 0 5 -3 15 -6 24 -5 12 0 16 20 16 18 0 26 5 26 17 0 13 -3 14 -12 5 -21 -21 -48 -14 -48 12 0 26 27 39 53 24 13 -7 15 -5 11 7 -7 17 -24 18 -70 3z"/>
<path d="M4386 5334 c-4 -10 2 -12 24 -7 44 8 39 -22 -7 -44 -43 -21 -50 -35 -28 -57 21 -20 51 -21 59 -1 4 12 2 13 -12 6 -12 -6 -23 -6 -33 0 -12 8 -11 12 5 24 11 8 28 15 38 15 23 0 35 27 21 48 -14 23 -60 34 -67 16z"/>
<path d="M3556 5259 c-3 -17 -6 -49 -6 -69 0 -31 3 -37 18 -34 14 4 16 14 14 57 -3 56 -2 56 44 -8 8 -12 17 -15 22 -10 5 6 -11 28 -39 53 l-46 42 -7 -31z"/>
<path d="M4604 5203 c-27 -20 -51 -38 -54 -40 -2 -2 1 -8 8 -12 8 -5 25 3 45 22 l32 30 3 -32 c2 -18 -2 -38 -8 -45 -8 -10 -7 -15 3 -19 11 -4 16 10 20 61 3 37 4 68 3 70 -2 1 -25 -14 -52 -35z"/>
<path d="M3359 5183 c-1 -5 0 -18 1 -31 2 -27 -25 -40 -50 -24 -10 6 -21 8 -24 5 -3 -3 4 -11 17 -18 12 -7 40 -22 61 -35 l39 -24 -7 52 c-4 29 -9 59 -12 67 -6 16 -23 21 -25 8z m21 -91 c0 -10 -4 -10 -19 0 -15 9 -17 15 -9 26 9 10 13 11 19 0 5 -7 9 -19 9 -26z"/>
<path d="M4749 5143 c-7 -14 -25 -35 -40 -47 -25 -22 -26 -23 -8 -34 22 -14 32 -15 25 -3 -3 5 10 29 29 54 25 33 31 46 21 50 -8 3 -19 -5 -27 -20z"/>
<path d="M3222 5078 c-9 -12 -7 -20 14 -39 15 -13 32 -36 38 -52 12 -27 12 -27 31 -7 14 16 15 20 3 20 -13 0 -57 49 -68 78 -5 12 -8 12 -18 0z"/>
<path d="M4860 5083 c0 -13 -57 -73 -69 -73 -6 0 -11 10 -11 22 0 17 -3 19 -12 10 -10 -10 -4 -21 28 -53 38 -37 42 -39 55 -23 9 11 9 15 2 10 -7 -4 -19 -3 -27 1 -12 7 -7 17 25 51 22 24 37 47 34 53 -7 11 -25 12 -25 2z"/>
<path d="M4919 4952 c-14 -31 -25 -58 -24 -60 1 -1 31 5 67 15 57 15 64 19 55 34 -9 15 -12 15 -25 3 -11 -11 -17 -12 -28 -3 -17 14 -19 64 -2 53 7 -4 8 -3 4 4 -13 21 -20 13 -47 -46z m31 -24 c0 -5 -7 -8 -15 -8 -17 0 -18 2 -9 25 5 13 8 14 15 3 5 -7 9 -16 9 -20z"/>
<path d="M3123 4958 c50 -120 50 -121 64 -102 7 10 10 20 5 23 -8 7 -42 58 -42 64 0 6 68 -17 76 -26 9 -8 24 1 24 15 0 6 -3 9 -6 5 -3 -3 -28 3 -55 14 -58 22 -73 24 -66 7z"/>
<path d="M3842 5040 c-179 -43 -302 -112 -435 -243 -144 -142 -232 -302 -274 -498 -17 -77 -18 -148 -18 -876 0 -435 2 -793 5 -795 3 -2 425 -2 938 0 l933 4 -3 822 c-3 815 -4 822 -26 901 -91 325 -324 569 -642 670 -74 23 -106 27 -240 31 -129 3 -169 0 -238 -16z m344 -55 c202 -36 333 -104 479 -250 85 -85 108 -115 152 -200 65 -127 91 -219 103 -370 5 -66 10 -425 10 -797 l0 -678 -875 0 -875 0 0 754 c0 632 2 767 15 828 50 241 185 447 380 578 101 68 193 107 309 130 114 23 190 24 302 5z"/>
<path d="M3995 4963 c-11 -2 -31 -6 -44 -9 l-24 -5 23 -24 c20 -22 22 -28 12 -50 -8 -18 -9 -32 -2 -45 5 -10 10 -21 10 -23 0 -9 -57 -26 -108 -32 -66 -7 -187 -50 -227 -80 -16 -12 -47 -27 -67 -34 -41 -14 -106 -80 -133 -137 -22 -48 -10 -60 44 -47 22 6 43 8 46 5 13 -13 3 -20 -27 -18 -27 1 -34 -3 -36 -20 -2 -16 4 -24 27 -32 17 -6 45 -27 62 -46 19 -22 40 -36 54 -36 26 0 55 34 55 63 0 18 6 19 93 13 63 -5 114 -2 165 7 66 14 72 13 72 -2 0 -9 -9 -24 -20 -34 -11 -9 -20 -25 -20 -36 0 -10 9 -30 20 -44 18 -22 20 -40 20 -154 0 -116 -2 -130 -20 -146 -11 -9 -20 -25 -20 -36 0 -10 9 -30 20 -44 17 -22 20 -40 20 -132 0 -92 -3 -110 -20 -132 -25 -32 -25 -38 2 -65 20 -20 20 -22 4 -34 -15 -10 -17 -26 -13 -100 2 -55 8 -89 15 -92 7 -2 12 -26 12 -63 0 -33 4 -59 10 -59 6 0 10 -24 10 -53 0 -41 4 -55 19 -64 13 -8 18 -19 14 -33 -4 -14 -1 -20 12 -20 13 0 16 6 12 20 -4 14 1 25 14 33 15 9 19 23 19 64 0 29 5 53 10 53 6 0 10 26 10 59 0 33 5 63 10 66 6 3 10 46 10 94 0 67 -4 92 -15 101 -14 11 -13 14 5 27 24 17 26 42 5 69 -21 28 -21 246 0 264 8 7 15 25 15 40 0 15 -7 33 -15 40 -12 10 -15 40 -15 150 0 110 3 140 15 150 19 16 19 51 0 76 -25 34 -18 44 30 44 42 0 58 11 35 25 -5 3 -10 13 -10 21 0 12 16 15 86 13 81 -2 88 -4 125 -34 26 -23 45 -31 59 -28 14 4 30 -3 45 -17 23 -21 25 -31 25 -109 0 -114 5 -120 66 -89 27 13 51 33 54 44 4 15 15 19 50 21 25 1 68 3 97 4 l52 2 -14 26 c-18 36 -69 82 -137 125 -57 36 -115 98 -98 104 31 11 -13 62 -68 80 -19 6 -46 22 -62 35 -48 41 -162 100 -225 118 -55 15 -60 18 -57 42 2 17 -2 27 -15 31 -10 3 -24 20 -31 38 -10 28 -9 35 10 55 16 17 18 23 7 27 -23 7 -142 14 -164 9z m62 -40 c14 -17 14 -17 9 0 -4 13 1 17 24 17 34 0 37 -6 13 -32 -9 -11 -11 -18 -5 -18 7 0 12 -13 12 -29 0 -27 -3 -29 -47 -33 -60 -6 -77 6 -70 49 3 18 1 35 -4 38 -18 12 -9 21 22 23 20 2 37 -4 46 -15z m96 -129 c-3 -8 -12 -13 -20 -10 -8 3 -38 6 -66 7 -69 1 -33 17 40 18 43 1 51 -2 46 -15z m-188 -52 c6 -4 21 -20 34 -37 24 -30 26 -20 6 29 -14 32 27 14 53 -24 l24 -35 -6 39 c-9 47 8 46 43 -5 l24 -34 -6 38 c-9 55 7 48 61 -29 11 -17 12 -15 8 14 -4 20 -1 32 6 32 15 0 37 -31 38 -54 0 -27 17 -8 22 24 4 23 6 22 23 -15 l19 -40 5 29 c5 24 8 26 17 15 6 -8 15 -27 19 -44 l8 -30 6 27 c7 33 25 25 36 -17 6 -22 9 -25 12 -12 7 29 27 14 33 -24 5 -31 7 -32 14 -11 11 32 26 27 26 -8 0 -16 5 -30 10 -30 6 0 10 5 10 10 0 6 5 10 10 10 6 0 10 -14 10 -31 0 -27 2 -30 15 -19 16 13 19 8 15 -25 -2 -17 0 -18 16 -5 16 14 17 13 10 -13 -6 -26 -5 -28 14 -22 30 10 26 -23 -5 -35 -30 -11 -46 -6 -104 33 -116 79 -240 86 -475 27 -163 -41 -198 -45 -305 -34 -42 5 -61 11 -57 19 6 17 -5 32 -39 49 -25 13 -26 16 -9 16 11 0 29 -7 40 -15 10 -8 25 -15 32 -15 19 0 14 28 -7 40 -24 12 -91 13 -91 1 0 -11 -103 -32 -113 -22 -17 17 61 97 132 134 l71 37 37 -17 c21 -9 43 -19 48 -21 6 -3 -3 9 -19 27 -37 38 -16 42 37 6 42 -29 49 -20 12 15 -14 13 -23 25 -21 28 6 6 48 -17 74 -41 28 -26 29 -14 1 24 -28 40 -2 39 36 -1 35 -37 45 -32 15 9 -21 30 -21 31 -1 31 11 0 30 -14 42 -32 26 -36 39 -20 15 17 -17 25 -5 35 19 17z m-350 -293 c22 -41 16 -83 -11 -87 -22 -3 -52 23 -40 35 4 4 11 1 16 -6 14 -23 43 -5 35 21 -11 34 -35 57 -53 51 -10 -4 -13 -2 -8 5 14 22 45 13 61 -19z m555 0 c0 -5 -25 -9 -57 -9 -63 0 -66 5 -7 18 41 9 64 6 64 -9z m-590 -19 c0 -11 -21 -11 -65 0 -27 7 -25 8 18 9 26 0 47 -3 47 -9z m498 -9 c6 -1 12 -8 12 -16 0 -10 -11 -15 -35 -15 -28 0 -35 4 -35 20 0 15 5 19 23 16 12 -3 28 -5 35 -5z m693 -89 l21 -27 -24 -6 c-12 -4 -44 -7 -70 -8 -38 -1 -52 -7 -76 -31 -44 -44 -62 -40 -62 14 0 24 -3 57 -6 74 -5 27 -4 30 13 26 10 -3 34 6 53 19 l35 23 47 -29 c26 -16 57 -41 69 -55z m-766 18 c-8 -27 10 -25 29 2 9 12 19 19 22 15 4 -4 1 -13 -6 -22 -8 -10 -9 -15 -1 -15 6 0 16 9 23 20 17 26 28 25 20 -2 -4 -17 -2 -20 11 -15 11 4 17 1 17 -8 0 -12 -15 -15 -65 -15 -68 0 -85 11 -71 45 8 23 28 18 21 -5z m75 -76 c0 -4 -8 -13 -17 -20 -17 -13 -17 -13 0 -14 22 0 22 -19 0 -27 -14 -5 -13 -8 6 -15 24 -9 20 -28 -7 -28 -16 -1 -16 -1 1 -11 9 -5 17 -14 17 -19 0 -5 -8 -10 -17 -13 -15 -3 -14 -6 7 -14 l25 -11 -24 -9 c-20 -8 -21 -11 -8 -16 22 -8 22 -27 0 -27 -16 -1 -16 -2 1 -15 19 -14 18 -15 -12 -15 l-32 0 0 130 0 130 30 0 c17 0 30 -3 30 -6z m-70 -304 c-6 -11 -7 -20 -3 -20 5 0 14 9 21 20 16 27 31 25 25 -2 -6 -23 -6 -22 16 2 22 25 22 25 18 3 -6 -25 3 -29 21 -11 15 15 26 4 19 -17 -9 -21 -135 -22 -143 0 -9 21 3 45 21 45 13 0 14 -4 5 -20z m54 -85 c-17 -13 -17 -14 -1 -15 9 0 17 -4 17 -10 0 -5 -8 -10 -17 -10 -17 -1 -17 -1 0 -14 22 -17 22 -26 0 -26 -15 0 -15 -1 1 -13 18 -13 18 -14 0 -21 -17 -7 -17 -9 6 -18 l25 -10 -25 -11 c-21 -8 -22 -11 -7 -14 9 -3 17 -8 17 -13 0 -5 -8 -10 -17 -13 -15 -3 -14 -6 7 -15 24 -10 23 -11 -12 -11 l-38 -1 0 115 0 115 32 0 c30 0 31 -1 12 -15z m56 -260 c0 -7 -7 -18 -16 -23 -11 -6 -15 -17 -11 -31 4 -16 1 -21 -14 -21 -12 0 -16 5 -13 15 4 9 0 15 -10 15 -9 0 -16 -7 -16 -15 0 -9 -9 -15 -22 -15 -17 0 -19 3 -10 12 16 16 15 38 -2 38 -8 0 -18 5 -21 10 -13 21 8 30 71 30 49 0 64 -3 64 -15z m-10 -146 c0 -23 -4 -38 -10 -34 -5 3 -15 -3 -22 -15 -13 -20 -38 -28 -38 -11 0 11 -31 24 -38 16 -3 -3 3 -14 13 -25 18 -19 17 -20 -3 -20 -20 0 -22 5 -22 65 l0 65 60 0 60 0 0 -41z m0 -69 c0 -11 -7 -20 -15 -20 -18 0 -19 6 -2 25 16 19 17 18 17 -5z m-20 -95 c0 -44 0 -45 -34 -45 -37 0 -46 12 -46 61 0 27 2 29 40 29 l40 0 0 -45z m-10 -89 c0 -19 -25 -27 -39 -13 -18 18 -13 27 14 27 15 0 25 -6 25 -14z m-5 -57 c-8 -12 -45 -12 -45 0 0 10 30 20 43 14 4 -3 5 -9 2 -14z"/>
<path d="M4012 4918 c2 -6 10 -14 16 -16 7 -2 10 2 6 12 -7 18 -28 22 -22 4z"/>
<path d="M4023 4873 c-16 -6 -17 -33 -3 -33 11 0 26 28 19 34 -2 2 -10 1 -16 -1z"/>
<path d="M3625 4640 c-3 -5 2 -10 13 -10 45 0 95 -70 60 -83 -10 -3 -8 -10 5 -25 15 -17 17 -24 7 -42 -15 -28 -7 -36 14 -15 25 26 15 143 -14 167 -24 19 -75 24 -85 8z"/>
<path d="M3793 4617 c-46 -14 -41 -22 15 -22 51 0 115 -22 106 -36 -3 -5 -32 -9 -64 -9 -69 0 -91 -7 -83 -26 4 -10 10 -11 23 -4 10 5 39 7 64 4 39 -6 52 -3 88 21 l42 28 -65 24 c-81 31 -87 32 -126 20z"/>
<path d="M3562 4588 c-21 -21 -14 -39 15 -35 33 4 41 22 15 36 -13 7 -22 7 -30 -1z"/>
<path d="M3777 4583 c-16 -16 -4 -22 41 -21 l47 1 -30 13 c-34 15 -49 17 -58 7z"/>
<path d="M4208 4541 c-77 -11 -64 -18 26 -13 89 5 172 -13 234 -48 48 -28 39 -9 -11 22 -68 43 -138 54 -249 39z"/>
<path d="M3997 4493 c-4 -3 -59 -9 -124 -12 -87 -5 -118 -10 -121 -20 -7 -21 166 -7 238 18 30 11 46 20 34 20 -11 1 -24 -2 -27 -6z"/>
<path d="M4650 4387 c0 -14 75 -77 91 -77 26 0 17 14 -33 51 -37 26 -58 35 -58 26z"/>
<path d="M4624 4348 c3 -13 6 -26 6 -30 0 -5 7 -8 15 -8 14 0 14 3 0 30 -18 35 -30 39 -21 8z"/>
<path d="M4580 4297 c0 -35 4 -47 13 -45 18 7 20 50 3 73 -14 19 -15 17 -16 -28z"/>
<path d="M4035 3621 c-3 -5 -1 -12 5 -16 12 -7 30 2 30 16 0 12 -27 12 -35 0z"/>
<path d="M4037 3503 c-4 -3 -7 -17 -7 -30 0 -18 5 -23 25 -23 25 0 31 13 19 44 -6 16 -26 21 -37 9z"/>
<path d="M4020 3323 c0 -5 6 -18 14 -28 12 -16 16 -17 30 -6 9 7 16 20 16 28 0 13 -3 13 -15 3 -12 -10 -18 -10 -30 0 -8 7 -15 8 -15 3z"/>
<path d="M3533 4248 c-34 -38 -34 -45 -5 -45 32 -1 102 -25 102 -35 0 -5 -7 -8 -16 -8 -14 0 -14 -3 -4 -15 10 -12 9 -15 -6 -15 -18 -1 -18 -1 1 -16 16 -12 17 -17 7 -23 -11 -7 -11 -9 2 -14 21 -8 20 -27 -1 -27 -31 0 2 -21 53 -34 38 -10 53 -19 68 -46 l20 -33 -28 7 c-16 4 -45 18 -65 32 -19 13 -39 24 -43 24 -17 0 -6 -60 17 -94 24 -35 34 -86 17 -86 -12 0 -52 74 -52 96 0 27 -15 5 -28 -43 -7 -22 -21 -52 -31 -65 -18 -21 -20 -21 -26 -6 -4 11 2 35 15 60 40 75 44 145 8 121 -16 -10 -118 -11 -118 -1 0 17 45 30 91 26 37 -2 50 1 53 12 7 26 3 160 -4 165 -15 9 -29 -55 -23 -103 l5 -48 -40 4 c-22 2 -50 -1 -61 -8 -19 -10 -61 -65 -61 -80 0 -3 36 -4 80 -2 91 5 97 -1 55 -58 -19 -26 -25 -46 -25 -87 0 -37 4 -53 13 -53 19 0 64 50 77 85 l12 30 15 -30 c17 -33 43 -65 52 -65 4 0 12 19 19 43 10 38 9 47 -12 88 l-23 46 36 -13 c20 -7 52 -13 72 -14 l36 0 -24 51 c-20 41 -32 54 -70 70 l-46 20 7 89 7 89 -30 16 c-42 21 -74 19 -98 -7z m85 -20 c17 -17 15 -28 -5 -28 -19 1 -53 22 -53 34 0 11 46 6 58 -6z"/>
<path d="M4282 4068 c-16 -16 -15 -50 8 -229 42 -324 48 -349 90 -349 25 0 25 4 -5 -64 -30 -69 -31 -86 -4 -120 20 -26 21 -26 158 -26 125 0 141 2 165 21 32 25 34 59 6 124 -11 26 -20 48 -20 51 0 2 13 10 29 18 16 9 32 23 36 33 8 22 55 376 55 419 0 22 -13 47 -41 83 l-41 51 -212 0 c-152 0 -215 -3 -224 -12z m454 -53 c35 -42 38 -58 11 -63 -13 -3 -17 4 -17 27 0 41 -18 49 -22 9 l-4 -33 -8 30 c-14 56 -20 61 -24 20 -5 -56 -22 -69 -22 -17 0 23 -4 42 -9 42 -10 0 -23 -58 -15 -71 3 -5 0 -9 -5 -9 -6 0 -11 10 -11 22 0 33 -29 58 -67 58 -39 0 -61 -18 -73 -58 -7 -24 -8 -23 -9 16 -1 43 -20 60 -23 20 0 -13 -2 -27 -3 -33 -2 -5 -4 -14 -5 -20 -1 -5 -8 10 -15 35 l-13 45 -7 -32 c-9 -40 -25 -33 -25 10 0 24 -3 28 -12 19 -8 -8 -15 -9 -25 -1 -32 27 -9 31 178 27 l191 -3 34 -40z m-369 -63 l32 -33 185 3 c174 3 186 2 186 -15 0 -49 -52 -372 -61 -384 -16 -18 -308 -19 -332 0 -12 9 -23 67 -47 237 -17 124 -33 239 -36 255 l-5 30 23 -30 c12 -16 37 -45 55 -63z m213 29 c15 -30 14 -31 -35 -31 -30 0 -45 4 -45 13 0 37 62 51 80 18z m-146 -538 c-49 -116 -52 -113 102 -113 146 0 148 2 115 86 -24 64 -24 64 -12 64 11 0 51 -97 51 -124 0 -41 -17 -46 -156 -46 -170 0 -175 5 -124 124 10 25 24 46 30 46 6 0 4 -15 -6 -37z m181 -15 c14 -28 25 -55 25 -60 0 -4 -47 -8 -105 -8 -58 0 -105 2 -105 4 0 2 11 29 25 60 l25 56 55 0 55 0 25 -52z"/>
<path d="M4330 3932 c0 -6 14 -22 31 -36 35 -30 99 -37 99 -11 0 11 -11 15 -39 15 -24 0 -48 8 -65 21 -14 11 -26 16 -26 11z"/>
<path d="M4695 3890 c-8 -13 20 -24 41 -16 20 8 9 26 -16 26 -10 0 -22 -5 -25 -10z"/>
<path d="M4339 3872 c17 -32 52 -52 88 -52 23 0 33 5 33 15 0 11 -11 15 -36 15 -21 0 -49 9 -66 22 l-30 21 11 -21z"/>
<path d="M4690 3835 c0 -9 9 -15 25 -15 16 0 25 6 25 15 0 9 -9 15 -25 15 -16 0 -25 -6 -25 -15z"/>
<path d="M4349 3813 c20 -38 98 -56 109 -25 2 8 -9 12 -35 12 -21 0 -49 7 -62 16 -22 16 -23 16 -12 -3z"/>
<path d="M4683 3788 c2 -7 14 -13 27 -13 13 0 25 6 28 13 2 8 -7 12 -28 12 -21 0 -30 -4 -27 -12z"/>
<path d="M4350 3772 c0 -5 8 -16 18 -25 20 -18 92 -23 92 -7 0 6 -11 10 -25 10 -15 0 -39 7 -55 15 -17 9 -30 12 -30 7z"/>
<path d="M4670 3740 c0 -5 14 -10 30 -10 17 0 30 5 30 10 0 6 -13 10 -30 10 -16 0 -30 -4 -30 -10z"/>
<path d="M4373 3705 c32 -28 87 -34 87 -10 0 11 -11 15 -39 15 -22 0 -43 5 -46 10 -3 6 -12 10 -18 10 -7 0 1 -12 16 -25z"/>
<path d="M4667 3703 c-15 -14 -6 -24 20 -21 34 4 43 28 11 28 -14 0 -28 -3 -31 -7z"/>
<path d="M4360 3676 c0 -3 10 -14 22 -26 26 -24 78 -27 78 -5 0 10 -10 15 -31 15 -17 0 -39 5 -50 10 -10 6 -19 8 -19 6z"/>
<path d="M4647 3654 c-16 -17 -5 -25 31 -22 20 2 37 8 37 13 0 12 -57 19 -68 9z"/>
<path d="M4370 3622 c0 -15 25 -31 58 -38 25 -5 32 -3 32 10 0 11 -9 16 -26 16 -14 0 -34 5 -45 10 -10 6 -19 7 -19 2z"/>
<path d="M4623 3598 c2 -8 20 -13 42 -13 22 0 40 5 43 13 2 8 -10 12 -43 12 -33 0 -45 -4 -42 -12z"/>
<path d="M4385 3560 c20 -22 80 -28 72 -7 -2 6 -10 11 -17 9 -7 -2 -26 2 -43 8 -30 10 -30 10 -12 -10z"/>
<path d="M4607 3564 c-17 -17 -4 -24 44 -24 36 0 49 4 47 13 -5 13 -79 22 -91 11z"/>
<path d="M3755 3865 l49 -45 -41 0 c-23 0 -45 5 -49 12 -5 8 -12 3 -20 -16 -10 -25 -8 -34 12 -64 13 -19 24 -43 24 -54 0 -15 -5 -17 -27 -12 -16 4 -32 11 -37 15 -30 27 -36 -16 -7 -52 24 -31 33 -79 15 -79 -7 0 -25 12 -38 27 -20 22 -28 25 -38 15 -9 -9 -9 -15 0 -24 22 -22 6 -118 -19 -118 -15 0 -30 77 -20 103 8 19 6 28 -5 38 -12 10 -19 8 -39 -11 -14 -13 -28 -20 -32 -17 -7 8 28 77 39 77 5 0 8 14 8 30 l0 30 -40 -20 c-70 -36 -83 -22 -38 42 22 32 23 49 3 41 -19 -7 -50 -65 -60 -112 -8 -37 -13 -35 63 -17 23 5 30 -11 13 -29 -5 -6 -14 -27 -19 -47 -10 -38 -10 -38 16 -32 15 4 35 11 45 16 14 7 17 4 17 -16 0 -14 5 -37 10 -52 9 -22 7 -36 -10 -71 -29 -62 -44 -47 -37 38 7 81 -5 89 -53 37 l-29 -33 -1 45 c0 28 7 56 20 75 28 42 25 48 -12 25 -38 -23 -78 -26 -78 -7 0 7 11 28 25 47 35 47 33 68 -5 62 -16 -2 -30 0 -30 6 0 17 66 69 104 83 48 17 45 33 -6 36 -23 2 -46 7 -52 13 -13 13 40 32 83 28 22 -2 36 2 39 11 4 11 -8 13 -57 9 -46 -3 -67 -10 -86 -28 l-26 -24 31 -16 31 -16 -31 -23 c-28 -20 -70 -76 -70 -92 0 -4 13 -9 30 -12 l30 -6 -19 -33 c-11 -18 -21 -44 -23 -58 -3 -23 0 -25 38 -25 l40 0 -4 -52 c-2 -29 -2 -60 2 -69 5 -14 10 -14 42 5 43 25 46 26 43 4 -3 -36 2 -88 9 -101 5 -7 16 -10 25 -6 26 9 58 69 50 90 -6 17 -5 18 11 4 16 -12 20 -11 37 10 10 14 21 41 25 60 3 19 6 38 7 42 1 4 15 1 31 -7 47 -25 59 -20 53 20 -3 20 -13 50 -21 67 -21 41 -21 41 20 23 20 -8 38 -15 40 -15 2 0 4 17 4 38 0 24 -9 51 -26 76 l-27 39 39 -8 c48 -9 48 -9 75 -47 l22 -31 -36 5 c-42 5 -45 -2 -18 -46 10 -17 21 -44 25 -59 l7 -28 -47 7 -47 7 8 -39 c12 -63 11 -99 -3 -99 -6 0 -30 17 -52 39 -35 33 -40 36 -40 18 0 -11 4 -32 9 -45 11 -27 4 -67 -10 -67 -6 0 -13 9 -17 21 -7 18 -10 19 -20 6 -10 -11 -7 -21 11 -47 12 -19 27 -35 32 -37 12 -4 38 84 30 98 -9 14 0 11 40 -12 25 -15 39 -19 47 -11 12 12 13 66 3 112 -7 32 -7 32 26 25 19 -3 41 -9 50 -11 14 -4 15 1 8 41 -5 24 -16 56 -25 70 -16 25 -16 25 14 25 17 0 34 4 37 10 8 12 -52 100 -68 100 -7 0 2 11 18 24 l30 24 -29 11 c-16 7 -42 23 -58 36 -54 46 -66 27 -13 -20z"/>
<path d="M3249 3795 c-27 -14 -59 -56 -59 -75 0 -16 92 -8 98 8 3 9 -4 13 -19 12 -49 -4 -55 -1 -37 17 10 9 36 19 59 22 52 7 66 31 17 31 -18 -1 -45 -7 -59 -15z"/>
<path d="M3837 3803 c-15 -14 -5 -23 26 -23 23 0 41 -8 58 -26 l24 -27 -33 5 c-42 6 -37 -13 7 -25 43 -11 61 -4 54 22 -13 49 -109 102 -136 74z"/>
<path d="M3551 3766 c-10 -12 -12 -31 -8 -68 12 -100 54 -100 83 -1 15 51 15 57 0 71 -15 15 -16 13 -16 -23 -1 -22 -7 -51 -15 -65 l-13 -25 -6 25 c-3 14 -7 43 -8 64 -3 35 -4 38 -17 22z"/>
<path d="M3264 3660 c-47 -19 -77 -110 -36 -110 33 0 62 12 62 26 0 10 -7 13 -25 8 -18 -4 -25 -2 -25 7 0 24 16 40 45 47 16 5 30 13 33 20 4 14 -23 15 -54 2z"/>
<path d="M3874 3633 c42 -44 45 -58 11 -49 -33 8 -33 -12 1 -24 39 -15 54 -12 54 11 0 43 -44 99 -78 99 -23 0 -23 -1 12 -37z"/>
<path d="M3280 3510 c-29 -57 -27 -70 15 -70 35 0 43 -8 26 -25 -5 -6 -11 -23 -13 -40 -3 -27 0 -30 29 -33 18 -2 41 2 52 8 20 10 20 8 14 -35 l-6 -45 33 0 c17 0 45 8 60 17 28 16 29 16 48 -7 16 -19 22 -21 40 -11 12 6 22 17 22 22 0 6 16 -3 36 -21 25 -21 44 -30 62 -28 24 3 27 8 30 46 3 46 7 49 36 27 11 -8 30 -15 43 -15 20 0 23 5 23 34 0 19 -4 46 -9 60 -10 24 -9 24 25 19 32 -5 34 -4 34 22 0 30 -28 95 -40 95 -5 0 -16 3 -25 6 -12 5 -10 -3 9 -31 14 -21 26 -44 26 -51 0 -17 3 -16 -38 -5 -38 11 -41 0 -16 -66 9 -24 14 -46 11 -49 -8 -8 -48 15 -83 48 -25 24 -32 26 -37 14 -3 -8 0 -27 7 -42 8 -14 13 -33 11 -42 -2 -9 -4 -23 -4 -29 -2 -23 -30 -14 -48 15 -9 15 -23 35 -31 45 -14 16 -16 15 -33 -13 -23 -37 -37 -38 -45 -5 -7 30 -11 31 -32 5 -10 -11 -32 -23 -51 -27 -32 -6 -34 -5 -28 18 4 13 10 41 13 62 l7 38 -38 -25 c-46 -31 -75 -34 -75 -7 0 11 5 23 10 26 6 3 10 19 10 35 0 27 -2 28 -35 23 -42 -7 -44 4 -9 46 25 30 25 31 5 31 -14 0 -27 -13 -41 -40z"/>
<path d="M3310 3211 c0 -29 4 -41 15 -41 36 0 131 -46 178 -87 70 -60 90 -78 105 -97 25 -31 59 -30 97 3 20 17 40 31 45 31 6 0 10 5 10 10 0 6 -7 10 -15 10 -17 0 -31 28 -40 82 -6 40 -38 70 -87 82 -15 3 -30 15 -33 27 -8 24 -31 19 -27 -6 3 -14 -1 -16 -20 -11 -13 3 -43 9 -68 13 -41 6 -44 5 -31 -10 17 -21 3 -22 -37 -2 -17 9 -40 18 -52 20 -11 2 -25 7 -30 10 -6 4 -10 -10 -10 -34z m98 -22 c22 -6 64 -29 92 -51 29 -22 54 -37 56 -35 2 2 -14 25 -37 51 -23 26 -40 49 -38 51 10 9 86 -54 101 -85 l18 -35 0 36 c0 19 -5 40 -12 47 -9 9 -7 12 9 12 16 0 23 -8 28 -30 4 -17 20 -40 35 -52 16 -12 34 -34 39 -50 9 -25 7 -30 -14 -44 -32 -21 -64 -10 -77 27 -5 16 -17 29 -25 29 -9 0 -33 16 -54 35 -40 36 -116 78 -161 89 -16 3 -28 11 -28 17 0 6 6 9 14 6 8 -3 32 -11 54 -18z"/>
<path d="M3640 3025 c0 -8 7 -15 15 -15 8 0 15 7 15 15 0 8 -7 15 -15 15 -8 0 -15 -7 -15 -15z"/>
<path d="M4015 3041 c-10 -9 -96 -19 -180 -20 l-40 -1 0 -112 c0 -104 2 -113 20 -118 11 -4 20 -15 20 -25 0 -13 6 -19 18 -17 12 2 17 -4 17 -19 0 -20 4 -21 45 -16 25 4 67 16 93 27 l48 21 46 -21 c25 -11 67 -23 92 -26 42 -6 46 -5 46 15 0 14 6 21 20 21 13 0 20 7 20 20 0 11 7 20 15 20 13 0 15 20 15 120 l0 120 -109 0 c-63 0 -112 4 -116 10 -8 13 -58 13 -70 1z m65 -32 c0 -5 47 -9 105 -9 l105 0 -2 -92 -2 -93 -5 85 -6 85 -80 3 c-94 3 -95 -15 -1 -25 l56 -6 -2 -96 -2 -96 -5 85 -6 85 -43 7 c-24 4 -64 19 -89 33 l-46 25 -53 -26 c-29 -14 -71 -28 -93 -31 l-40 -6 -4 -86 -3 -86 -2 96 -2 96 52 6 c74 9 86 27 18 27 -98 0 -99 -1 -103 -94 l-3 -81 -2 93 -2 92 88 2 c105 1 102 1 126 15 21 11 46 7 46 -8z m-40 -138 l0 -90 -55 -20 c-86 -32 -85 -33 -85 63 l0 85 53 15 c28 9 59 20 67 26 8 5 16 10 18 10 1 0 2 -40 2 -89z m54 80 c3 -4 30 -16 61 -25 l55 -18 0 -85 0 -85 -32 7 c-18 3 -50 13 -70 22 l-38 16 0 89 c0 78 8 105 24 79z"/>
<path d="M3968 2902 c-43 -14 -67 -42 -35 -42 22 1 97 39 97 50 0 12 -3 12 -62 -8z"/>
<path d="M3968 2852 c-27 -8 -48 -21 -48 -29 0 -7 4 -13 9 -13 20 0 101 40 101 50 0 12 -3 12 -62 -8z"/>
<path d="M3963 2802 c-45 -17 -63 -49 -20 -36 50 15 87 34 87 43 0 14 -15 12 -67 -7z"/>
<path d="M4090 2906 c0 -16 24 -29 75 -42 42 -10 30 21 -12 35 -21 7 -44 15 -50 17 -7 3 -13 -1 -13 -10z"/>
<path d="M4090 2857 c0 -12 69 -47 93 -47 21 0 2 27 -25 36 -18 6 -41 14 -50 19 -13 5 -18 3 -18 -8z"/>
<path d="M4090 2807 c0 -9 19 -22 47 -31 56 -19 53 -19 53 -3 0 8 -17 19 -37 26 -21 7 -44 15 -50 17 -7 3 -13 -1 -13 -9z"/>
</g>


</svg>